name C:\Users\u0150099\Documents\master_thesis\3dpredictsim\Results\debug\Fal_s1_mtj_sc_cspx10_oy_ATx80_MTPm_k1_d01_MTJm_nl_MG_exp_table_d01_PF_Gefen2002_ls146_PIM2_w5e+04_w1e+04_ig21.mot
datacolumns 128
datarows 4
range 1.57123492 1.60265962
endheader
time	pelvis_tilt	pelvis_list	pelvis_rotation	pelvis_tx	pelvis_ty	pelvis_tz	hip_flexion_l	hip_adduction_l	hip_rotation_l	hip_flexion_r	hip_adduction_r	hip_rotation_r	knee_angle_l	knee_angle_r	ankle_angle_l	ankle_angle_r	subtalar_angle_l	subtalar_angle_r	mtj_angle_l	mtj_angle_r	mtp_angle_l	mtp_angle_r	lumbar_extension	lumbar_bending	lumbar_rotation	arm_flex_l	arm_add_l	arm_rot_l	arm_flex_r	arm_add_r	arm_rot_r	elbow_flex_l	elbow_flex_r	pro_sup_l	pro_sup_r	glut_med1_l/activation	glut_med2_l/activation	glut_med3_l/activation	glut_min1_l/activation	glut_min2_l/activation	glut_min3_l/activation	semimem_l/activation	semiten_l/activation	bifemlh_l/activation	bifemsh_l/activation	sar_l/activation	add_long_l/activation	add_brev_l/activation	add_mag1_l/activation	add_mag2_l/activation	add_mag3_l/activation	tfl_l/activation	pect_l/activation	grac_l/activation	glut_max1_l/activation	glut_max2_l/activation	glut_max3_l/activation	iliacus_l/activation	psoas_l/activation	quad_fem_l/activation	gem_l/activation	peri_l/activation	rect_fem_l/activation	vas_med_l/activation	vas_int_l/activation	vas_lat_l/activation	med_gas_l/activation	lat_gas_l/activation	soleus_l/activation	tib_post_l/activation	flex_dig_l/activation	flex_hal_l/activation	tib_ant_l/activation	per_brev_l/activation	per_long_l/activation	per_tert_l/activation	ext_dig_l/activation	ext_hal_l/activation	ercspn_l/activation	intobl_l/activation	extobl_l/activation	glut_med1_r/activation	glut_med2_r/activation	glut_med3_r/activation	glut_min1_r/activation	glut_min2_r/activation	glut_min3_r/activation	semimem_r/activation	semiten_r/activation	bifemlh_r/activation	bifemsh_r/activation	sar_r/activation	add_long_r/activation	add_brev_r/activation	add_mag1_r/activation	add_mag2_r/activation	add_mag3_r/activation	tfl_r/activation	pect_r/activation	grac_r/activation	glut_max1_r/activation	glut_max2_r/activation	glut_max3_r/activation	iliacus_r/activation	psoas_r/activation	quad_fem_r/activation	gem_r/activation	peri_r/activation	rect_fem_r/activation	vas_med_r/activation	vas_int_r/activation	vas_lat_r/activation	med_gas_r/activation	lat_gas_r/activation	soleus_r/activation	tib_post_r/activation	flex_dig_r/activation	flex_hal_r/activation	tib_ant_r/activation	per_brev_r/activation	per_long_r/activation	per_tert_r/activation	ext_dig_r/activation	ext_hal_r/activation	ercspn_r/activation	intobl_r/activation	extobl_r/activation	
          1.57123492	         -2.92778516	          1.56313926	         -3.08419418	          2.08974244	          0.91321799	          0.00463877	         28.77338366	          3.57746469	         -3.84577956	        -12.05093394	          3.14237955	          5.30375113	        -12.65107064	        -18.30941747	         10.93875163	          3.48234496	         -2.79573912	         -5.49714718	         -7.87487501	         -4.57039323	         13.79377355	         30.30040432	         -3.27098827	         -0.88693498	          1.25437178	         -4.89821633	        -13.51256969	          5.75710173	          3.56112721	        -13.85782387	         19.35809729	         25.72345305	         32.39691700	         86.51662706	         86.51662706	          0.06898204	          0.05000051	          0.05872916	          0.05000012	          0.05000019	          0.05001308	          0.31927051	          0.08808498	          0.34381128	          0.06898214	          0.05000157	          0.08305079	          0.14506520	          0.17612554	          0.17744548	          0.17600034	          0.05000277	          0.05008981	          0.17624738	          0.05885153	          0.09573660	          0.15808944	          0.05000008	          0.05000010	          0.16145394	          0.05000073	          0.05000046	          0.05000003	          0.05000013	          0.05000012	          0.05000011	          0.05000108	          0.05000096	          0.05000014	          0.16499856	          0.05000016	          0.05000756	          0.36147050	          0.08257882	          0.35564320	          0.19039995	          0.52438379	          0.06089594	          0.05849329	          0.08591084	          0.09687632	          0.32623673	          0.05000010	          0.05000003	          0.52127956	          0.10946254	          0.05000010	          0.05000192	          0.05000023	          0.05000015	          0.05000020	          0.05000108	          0.18622467	          0.05000178	          0.05000082	          0.05000344	          0.05004882	          0.36384156	          0.05014109	          0.05000031	          0.05000091	          0.05000057	          0.05000056	          0.35517089	          0.77200048	          0.05000004	          0.05000013	          0.05000005	          0.40631476	          0.23354239	          0.24739309	          0.20776357	          0.25848473	          0.40668209	          0.17870500	          0.61301187	          0.29127923	          0.50001184	          0.05000000	          0.08360799	          0.45538678	          0.05000031	          0.05000003	          0.05873660	          0.05000001	          0.05000000	          0.05000009	
          1.58170982	         -2.93006446	          1.59558807	         -3.27741079	          2.10636206	          0.91226615	          0.00435827	         28.47122285	          3.88379614	         -3.78873422	        -12.57981834	          2.88132706	          5.13964189	        -13.05483729	        -18.87928551	         10.44954665	          2.43788052	         -2.86936624	         -4.83350578	         -7.90153711	         -5.73957942	         13.15852864	         33.31663388	         -3.08980569	         -1.02142477	          1.37545213	         -5.58151877	        -13.46675335	          5.09422052	          3.25918506	        -13.82278268	         19.37432476	         25.27068612	         33.25178519	         86.51662706	         86.51662706	          0.05872907	          0.05872901	          0.05000016	          0.05872912	          0.05872909	          0.05004343	          0.27181641	          0.07499266	          0.29271372	          0.05872914	          0.05000024	          0.13293322	          0.21093936	          0.14994986	          0.19365019	          0.16720710	          0.05000014	          0.05002871	          0.15005139	          0.05010437	          0.08150710	          0.17880313	          0.08102389	          0.08097940	          0.50625144	          0.21282275	          0.13833980	          0.05000017	          0.05000017	          0.05000018	          0.05000013	          0.05000001	          0.05000003	          0.05000000	          0.14047437	          0.05000049	          0.08101317	          0.36959886	          0.10682156	          0.35252940	          0.34357490	          0.56585330	          0.05872961	          0.05000002	          0.07314166	          0.08247731	          0.27774721	          0.05000006	          0.05000002	          0.44380027	          0.09319293	          0.05000020	          0.05001079	          0.05000025	          0.05000013	          0.05000210	          0.05000809	          0.16964164	          0.16203502	          0.05000072	          0.05000244	          0.05000187	          0.32395488	          0.05874519	          0.05000030	          0.05000047	          0.05000029	          0.05000031	          0.30238078	          0.66469395	          0.05000002	          0.05000013	          0.05000018	          0.37220706	          0.21216673	          0.23866456	          0.21276723	          0.22006538	          0.34623581	          0.15214353	          0.53417225	          0.24798573	          0.42569386	          0.05000000	          0.07118108	          0.38770126	          0.05000008	          0.05000001	          0.05000653	          0.05000001	          0.05727545	          0.07217062	
          1.59218472	         -2.92981204	          1.64033519	         -3.45343769	          2.12322327	          0.91123857	          0.00405166	         28.16293242	          4.14461780	         -3.72923824	        -13.02426876	          2.59101944	          4.95480430	        -14.05131854	        -19.56802919	          9.60094310	          1.20386469	         -3.01436759	         -4.08601161	         -7.89249375	         -6.89207123	         12.53389158	         36.48269448	         -2.89736183	         -1.16870226	          1.48951656	         -6.27143184	        -13.44970739	          4.66356674	          2.87760659	        -13.77737065	         19.25869617	         24.79834270	         34.15219330	         86.51662706	         86.51662706	          0.05000001	          0.05000003	          0.08476112	          0.05000006	          0.05000005	          0.05000006	          0.23141552	          0.06384629	          0.24920680	          0.05000007	          0.06902694	          0.11317512	          0.33820975	          0.29767505	          0.16487925	          0.20067529	          0.05000089	          0.08099045	          0.12774891	          0.05000022	          0.13303203	          0.21970624	          0.06898215	          0.06898212	          0.57633661	          0.18119033	          0.11777815	          0.06898208	          0.11814606	          0.13322267	          0.09982626	          0.06898212	          0.06898256	          0.06898210	          0.11959524	          0.08102647	          0.06897217	          0.47685101	          0.29343276	          0.30013191	          0.29250841	          0.58109741	          0.05000046	          0.05000000	          0.06227039	          0.07021846	          0.23646483	          0.05872909	          0.05872909	          0.37783692	          0.07934149	          0.05872888	          0.05000201	          0.05000093	          0.05872897	          0.05000003	          0.05000017	          0.26015442	          0.27148150	          0.06162587	          0.05875428	          0.13831438	          0.27580496	          0.05001408	          0.05774337	          0.05872964	          0.05872957	          0.05873019	          0.25743702	          0.59229573	          0.05872916	          0.05872914	          0.05872765	          0.31688482	          0.19019174	          0.20319278	          0.18114905	          0.18735640	          0.29477377	          0.12952998	          0.45477661	          0.21112689	          0.36242172	          0.06362969	          0.06060123	          0.33007604	          0.05000002	          0.05000004	          0.05872908	          0.06412290	          0.07053406	          0.06898207	
          1.60265962	         -2.92765926	          1.72006874	         -3.61761504	          2.14024891	          0.91016087	          0.00375204	         27.76457164	          4.33669511	         -3.58414264	        -13.35986822	          2.26066043	          4.76317331	        -15.14701516	        -20.40993151	          8.71519381	         -0.15767955	         -3.17256523	         -3.29904940	         -8.02722760	         -8.08445879	         12.00741015	         39.70739516	         -2.69628440	         -1.35320546	          1.59856158	         -6.95477510	        -13.46614829	          4.44218092	          2.43232465	        -13.72612402	         19.07757185	         24.30081030	         35.09905935	         86.51662706	         86.51662706	          0.39040115	          0.38516211	          0.39022491	          0.44062547	          0.42652801	          0.39065560	          0.19701955	          0.14563685	          0.21216648	          0.09003219	          0.05876744	          0.09635358	          0.28794064	          0.25343077	          0.14037286	          0.24638262	          0.05000031	          0.06895288	          0.17577953	          0.24838582	          0.22573530	          0.25038204	          0.05872919	          0.05872915	          0.49067396	          0.15425951	          0.14338983	          0.05872907	          0.10058566	          0.11342139	          0.08498879	          0.05872910	          0.05872948	          0.05872908	          0.20467584	          0.06898330	          0.05872911	          0.62604882	          0.24981898	          0.34094962	          0.58341836	          0.71947092	          0.29468316	          0.07902734	          0.08350478	          0.05978168	          0.23008617	          0.05000006	          0.05000002	          0.39492620	          0.06897092	          0.05000012	          0.05000379	          0.05000012	          0.05000009	          0.05872900	          0.05872930	          0.23001686	          0.23113047	          0.05246632	          0.05002171	          0.11775639	          0.35020885	          0.05872973	          0.05000027	          0.05000077	          0.05000056	          0.05000104	          0.21917355	          0.68540555	          0.05000008	          0.05000011	          0.05000003	          0.26978529	          0.16192298	          0.17299164	          0.15422433	          0.15950910	          0.25685400	          0.11027754	          0.38718178	          0.17974647	          0.30855390	          0.15577223	          0.25773205	          0.28101584	          0.06131395	          0.22684497	          0.05000016	          0.09030361	          0.06005037	          0.05872907	
